<svg width="750" height="600" viewBox="0 0 664 498" fill="none" xmlns="http://www.w3.org/2000/svg">
<path d="M450.92 392.12C459 386.6 468.04 383.84 478.04 383.84C486.6 383.84 493.52 385.84 498.8 389.84C504.08 393.76 506.72 399.4 506.72 406.76C506.72 412.92 504.68 418.2 500.6 422.6C496.6 426.92 491.12 431.16 484.16 435.32C483.6 435.64 482.56 436.24 481.04 437.12C479.6 438 478.56 438.64 477.92 439.04C477.36 439.36 476.44 439.92 475.16 440.72C473.88 441.52 472.92 442.12 472.28 442.52C471.72 442.92 470.92 443.52 469.88 444.32C468.92 445.04 468.2 445.68 467.72 446.24C467.24 446.72 466.68 447.36 466.04 448.16C465.4 448.88 464.92 449.56 464.6 450.2C464.36 450.84 464.12 451.56 463.88 452.36C463.64 453.16 463.52 453.96 463.52 454.76L507.32 454.64V467H448.16V460.76C448.16 456.28 448.76 452.32 449.96 448.88C451.24 445.36 453.44 442.16 456.56 439.28C459.76 436.32 462.24 434.24 464 433.04C465.76 431.76 468.88 429.8 473.36 427.16C473.76 426.84 474.08 426.6 474.32 426.44C474.64 426.28 474.96 426.12 475.28 425.96C482 422.04 486.32 419.2 488.24 417.44C491.44 414.32 493.04 410.84 493.04 407C493.04 403.48 491.6 400.8 488.72 398.96C485.92 397.12 481.96 396.2 476.84 396.2C467.96 396.2 459.32 399.24 450.92 405.32V392.12Z" fill="white"/>
<path d="M244.9 350.5C240.3 337.7 238 324.2 238 310C238 295.8 240.3 282.3 244.9 269.5C249.7 256.7 256.5 245.2 265.3 235C274.1 224.6 285.7 216.4 300.1 210.4C314.5 204.2 330.6 201.1 348.4 201.1C366.2 201.1 382.2 204.2 396.4 210.4C410.8 216.4 422.4 224.6 431.2 235C440.2 245.2 447 256.7 451.6 269.5C456.4 282.3 458.8 295.8 458.8 310C458.8 324.2 456.4 337.7 451.6 350.5C447 363.3 440.2 374.9 431.2 385.3C422.4 395.5 410.8 403.7 396.4 409.9C382.2 415.9 366.2 418.9 348.4 418.9C330.6 418.9 314.5 415.9 300.1 409.9C285.7 403.7 274.1 395.5 265.3 385.3C256.5 374.9 249.7 363.3 244.9 350.5ZM404.2 364.6C417.4 349.8 424 331.6 424 310C424 288.4 417.4 270.2 404.2 255.4C391.2 240.6 372.6 233.2 348.4 233.2C324.4 233.2 305.8 240.6 292.6 255.4C279.4 270.2 272.8 288.4 272.8 310C272.8 331.6 279.4 349.8 292.6 364.6C305.8 379.4 324.4 386.8 348.4 386.8C372.6 386.8 391.2 379.4 404.2 364.6Z" fill="white"/>
<path d="M15.96 283.28C15.96 260.48 20.0133 239.96 28.12 221.72C36.2267 203.48 46.9933 188.787 60.42 177.64C73.8467 166.24 88.7933 157.627 105.26 151.8C121.727 145.973 138.953 143.06 156.94 143.06C184.047 143.06 209.253 148.887 232.56 160.54V202.72C213.56 189.547 190.76 182.96 164.16 182.96C136.04 182.96 111.72 191.447 91.2 208.42C70.68 225.393 60.2933 250.347 60.04 283.28C60.04 304.053 65.36 321.913 76 336.86C86.64 351.807 99.6867 362.573 115.14 369.16C130.593 375.747 147.187 379.04 164.92 379.04C193.293 379.04 216.473 372.2 234.46 358.52V401.46C210.647 413.113 184.933 418.94 157.32 418.94C139.587 418.94 122.487 416.153 106.02 410.58C89.5533 404.753 74.48 396.393 60.8 385.5C47.12 374.607 36.2267 360.293 28.12 342.56C20.0133 324.827 15.96 305.067 15.96 283.28Z" fill="white"/>
<g filter="url(#filter0_f)">
<line y1="-2.5" x2="108.163" y2="-2.5" transform="matrix(-0.053638 -0.99856 -0.99856 0.053638 578.362 335.602)" stroke="#A9FAFF" stroke-width="5"/>
</g>
<g filter="url(#filter1_f)">
<line y1="-2.5" x2="110.554" y2="-2.5" transform="matrix(-0.0610496 -0.998135 -0.998135 0.0610496 584.139 336.013)" stroke="#A9FAFF" stroke-width="5"/>
</g>
<g filter="url(#filter2_f)">
<line y1="-2.5" x2="107.016" y2="-2.5" transform="matrix(-0.965287 -0.26119 -0.259931 0.965627 504.909 125.153)" stroke="#A9FAFF" stroke-width="5"/>
</g>
<g filter="url(#filter3_f)">
<line y1="-2.5" x2="109.991" y2="-2.5" transform="matrix(-0.964887 -0.262665 -0.262665 0.964887 508.722 120.767)" stroke="#A9FAFF" stroke-width="5"/>
</g>
<g filter="url(#filter4_f)">
<circle r="51.6572" transform="matrix(0.735544 -0.677477 -0.677477 -0.735544 349.151 86.6139)" stroke="#A9FAFF" stroke-width="5"/>
</g>
<g filter="url(#filter5_f)">
<circle r="62.4886" transform="matrix(0.892326 -0.451392 -0.451392 -0.892326 553.562 166.573)" stroke="#A9FAFF" stroke-width="5"/>
</g>
<g filter="url(#filter6_f)">
<circle r="51.6572" transform="matrix(0.810962 -0.585098 -0.585098 -0.810962 578.238 389.116)" stroke="#A9FAFF" stroke-width="5"/>
</g>
<path d="M581 335.5L575 227.5" stroke="white" stroke-width="0.6"/>
<path d="M587 336L580 225.5" stroke="white" stroke-width="0.6"/>
<path d="M505.5 123L401.577 95.1925" stroke="white" stroke-width="0.6"/>
<path d="M510 118.5L402.373 88.5575" stroke="white" stroke-width="0.6"/>
<circle r="53.8572" transform="matrix(0.735544 -0.677477 -0.677477 -0.735544 348.525 86.525)" stroke="white" stroke-width="0.6"/>
<circle r="64.6886" transform="matrix(0.892326 -0.451392 -0.451392 -0.892326 553.562 166.573)" stroke="white" stroke-width="0.6"/>
<circle r="53.8572" transform="matrix(0.810962 -0.585098 -0.585098 -0.810962 578.238 389.116)" stroke="white" stroke-width="0.6"/>
<defs>
<filter id="filter0_f" x="562.56" y="217.327" width="30.7944" height="128.275" filterUnits="userSpaceOnUse" color-interpolation-filters="sRGB">
<feFlood flood-opacity="0" result="BackgroundImageFix"/>
<feBlend mode="normal" in="SourceGraphic" in2="BackgroundImageFix" result="shape"/>
<feGaussianBlur stdDeviation="5" result="effect1_foregroundBlur"/>
</filter>
<filter id="filter1_f" x="567.39" y="215.359" width="31.74" height="130.653" filterUnits="userSpaceOnUse" color-interpolation-filters="sRGB">
<feFlood flood-opacity="0" result="BackgroundImageFix"/>
<feBlend mode="normal" in="SourceGraphic" in2="BackgroundImageFix" result="shape"/>
<feGaussianBlur stdDeviation="5" result="effect1_foregroundBlur"/>
</filter>
<filter id="filter2_f" x="391.608" y="82.373" width="124.601" height="52.7797" filterUnits="userSpaceOnUse" color-interpolation-filters="sRGB">
<feFlood flood-opacity="0" result="BackgroundImageFix"/>
<feBlend mode="normal" in="SourceGraphic" in2="BackgroundImageFix" result="shape"/>
<feGaussianBlur stdDeviation="5" result="effect1_foregroundBlur"/>
</filter>
<filter id="filter3_f" x="392.593" y="77.0513" width="127.442" height="53.7152" filterUnits="userSpaceOnUse" color-interpolation-filters="sRGB">
<feFlood flood-opacity="0" result="BackgroundImageFix"/>
<feBlend mode="normal" in="SourceGraphic" in2="BackgroundImageFix" result="shape"/>
<feGaussianBlur stdDeviation="5" result="effect1_foregroundBlur"/>
</filter>
<filter id="filter4_f" x="262.626" y="0.0888672" width="173.051" height="173.051" filterUnits="userSpaceOnUse" color-interpolation-filters="sRGB">
<feFlood flood-opacity="0" result="BackgroundImageFix"/>
<feBlend mode="normal" in="SourceGraphic" in2="BackgroundImageFix" result="shape"/>
<feGaussianBlur stdDeviation="5" result="effect1_foregroundBlur"/>
</filter>
<filter id="filter5_f" x="456.236" y="69.2471" width="194.653" height="194.653" filterUnits="userSpaceOnUse" color-interpolation-filters="sRGB">
<feFlood flood-opacity="0" result="BackgroundImageFix"/>
<feBlend mode="normal" in="SourceGraphic" in2="BackgroundImageFix" result="shape"/>
<feGaussianBlur stdDeviation="5" result="effect1_foregroundBlur"/>
</filter>
<filter id="filter6_f" x="492.631" y="303.509" width="171.213" height="171.213" filterUnits="userSpaceOnUse" color-interpolation-filters="sRGB">
<feFlood flood-opacity="0" result="BackgroundImageFix"/>
<feBlend mode="normal" in="SourceGraphic" in2="BackgroundImageFix" result="shape"/>
<feGaussianBlur stdDeviation="5" result="effect1_foregroundBlur"/>
</filter>
</defs>
</svg>
